<svg width="40.000000" height="40.000000" viewBox="0 0 40 40" fill="none" xmlns="http://www.w3.org/2000/svg" xmlns:xlink="http://www.w3.org/1999/xlink">
	<desc>
			Created with Pixso.
	</desc>
	<defs>
		<clipPath id="clip1_433">
			<rect id="brand / behance" width="40.000000" height="40.000000" transform="translate(-0.496338 -0.488037)" fill="white" fill-opacity="0"/>
		</clipPath>
	</defs>
	<g clip-path="url(#clip1_433)">
		<path id="coolicon" d="M28.67 30.05C27.6 30.07 26.54 29.88 25.54 29.49C24.64 29.14 23.83 28.59 23.17 27.89C22.51 27.17 22 26.32 21.67 25.4C21.31 24.38 21.14 23.3 21.15 22.22C21.14 21.15 21.32 20.09 21.69 19.1C22.03 18.16 22.55 17.31 23.23 16.6C23.91 15.89 24.72 15.32 25.61 14.93C26.58 14.51 27.62 14.31 28.68 14.32C29.81 14.3 30.93 14.55 31.94 15.06C32.84 15.53 33.63 16.21 34.23 17.04C34.84 17.89 35.28 18.85 35.52 19.87C35.79 20.96 35.88 22.08 35.8 23.19L25.2 23.19C25.16 24.25 25.51 25.29 26.2 26.09C26.92 26.73 27.86 27.05 28.81 26.99C29.56 27.01 30.3 26.79 30.92 26.37C31.41 26.06 31.79 25.59 31.99 25.04L35.55 25.04C35.15 26.6 34.22 27.96 32.93 28.9C31.65 29.7 30.17 30.1 28.67 30.05ZM28.56 17.42C28.01 17.4 27.45 17.51 26.95 17.76C26.56 17.96 26.21 18.24 25.93 18.58C25.68 18.89 25.5 19.24 25.39 19.63C25.29 19.95 25.23 20.28 25.21 20.61L31.77 20.61C31.73 19.74 31.4 18.91 30.85 18.25C30.23 17.66 29.4 17.36 28.56 17.42ZM12.68 29.67L2.83 29.67L2.83 9.06L12.4 9.06C13.28 9.05 14.17 9.14 15.04 9.32C15.77 9.46 16.47 9.75 17.1 10.17C17.67 10.57 18.12 11.11 18.42 11.74C18.75 12.5 18.91 13.33 18.88 14.16C18.92 15.08 18.68 15.99 18.19 16.76C17.66 17.5 16.95 18.09 16.12 18.46C17.24 18.74 18.23 19.42 18.91 20.38C19.54 21.36 19.85 22.51 19.82 23.68C19.84 24.62 19.64 25.55 19.23 26.39C18.85 27.13 18.3 27.77 17.62 28.25C16.92 28.75 16.14 29.11 15.31 29.32C14.45 29.55 13.56 29.67 12.67 29.67L12.68 29.67ZM7.3 20.48L7.3 26.16L12.07 26.16C12.49 26.17 12.91 26.12 13.32 26.03C13.7 25.96 14.06 25.81 14.38 25.59C14.68 25.39 14.93 25.1 15.1 24.77C15.3 24.35 15.39 23.89 15.37 23.43C15.45 22.57 15.12 21.73 14.49 21.16C13.81 20.68 12.99 20.44 12.16 20.49L7.3 20.48ZM7.3 12.57L7.3 17.39L11.82 17.39C12.52 17.41 13.21 17.21 13.79 16.81C14.33 16.35 14.62 15.65 14.55 14.93C14.57 14.52 14.48 14.12 14.3 13.75C14.14 13.45 13.91 13.2 13.62 13.03C13.31 12.85 12.98 12.73 12.63 12.67C12.25 12.6 11.86 12.56 11.47 12.57L7.3 12.57ZM32.6 12.48L24.37 12.48L24.37 10.44L32.6 10.44L32.6 12.48L32.6 12.48Z" fill="#E6EAEE" fill-opacity="1.000000" fill-rule="nonzero"/>
	</g>
</svg>
