<svg width="32.000000" height="32.000000" viewBox="0 0 32 32" fill="none" xmlns="http://www.w3.org/2000/svg" xmlns:xlink="http://www.w3.org/1999/xlink">
	<desc>
			Created with Pixso.
	</desc>
	<defs/>
	<path id="Vector" d="M19.99 30.33L11.99 30.33C4.75 30.33 1.66 27.24 1.66 20L1.66 12C1.66 4.76 4.75 1.66 11.99 1.66L19.99 1.66C27.24 1.66 30.33 4.76 30.33 12L30.33 20C30.33 27.24 27.24 30.33 19.99 30.33ZM11.99 3.66C5.85 3.66 3.66 5.85 3.66 12L3.66 20C3.66 26.14 5.85 28.33 11.99 28.33L19.99 28.33C26.14 28.33 28.33 26.14 28.33 20L28.33 12C28.33 5.85 26.14 3.66 19.99 3.66L11.99 3.66Z" fill="#E6EAEE" fill-opacity="1.000000" fill-rule="nonzero"/>
	<path id="Vector" d="M14.1 20.77C13.84 20.77 13.58 20.66 13.4 20.48L9.62 16.7C9.23 16.32 9.23 15.68 9.62 15.29C10.01 14.9 10.65 14.9 11.04 15.29L14.1 18.36L20.96 11.5C21.34 11.12 21.98 11.12 22.37 11.5C22.76 11.89 22.76 12.53 22.37 12.92L14.81 20.48C14.62 20.66 14.37 20.77 14.1 20.77Z" fill="#E6EAEE" fill-opacity="1.000000" fill-rule="nonzero"/>
	<g opacity="0.000000"/>
</svg>
